{
	"meshes":[{
		"name":"Car red",
		"primitives":[{
			"attributes":{
				"POSITION":1,
				"NORMAL":2,
				"TEXCOORD_0":3
			},
			"indices":0
		}]
	},
	{
		"name":"Car red-Orange",
		"primitives":[{
			"attributes":{
				"POSITION":5,
				"NORMAL":6,
				"TEXCOORD_0":7
			},
			"indices":4,
			"material":0
		}]
	},
	{
		"name":"Car red-white",
		"primitives":[{
			"attributes":{
				"POSITION":9,
				"NORMAL":10,
				"TEXCOORD_0":11
			},
			"indices":8,
			"material":1
		}]
	},
	{
		"name":"Car red-Black",
		"primitives":[{
			"attributes":{
				"POSITION":13,
				"NORMAL":14,
				"TEXCOORD_0":15
			},
			"indices":12,
			"material":2
		}]
	},
	{
		"name":"Car red-Black",
		"primitives":[{
			"attributes":{
				"POSITION":17,
				"NORMAL":18,
				"TEXCOORD_0":19
			},
			"indices":16,
			"material":2
		}]
	},
	{
		"name":"Car red-Grey",
		"primitives":[{
			"attributes":{
				"POSITION":21,
				"NORMAL":22,
				"TEXCOORD_0":23
			},
			"indices":20,
			"material":3
		}]
	},
	{
		"name":"Car red-white",
		"primitives":[{
			"attributes":{
				"POSITION":25,
				"NORMAL":26,
				"TEXCOORD_0":27
			},
			"indices":24,
			"material":1
		}]
	},
	{
		"name":"Car red-Glass Transparent",
		"primitives":[{
			"attributes":{
				"POSITION":29,
				"NORMAL":30,
				"TEXCOORD_0":31
			},
			"indices":28,
			"material":4
		}]
	},
	{
		"name":"Car red-red_1",
		"primitives":[{
			"attributes":{
				"POSITION":33,
				"NORMAL":34,
				"TEXCOORD_0":35
			},
			"indices":32,
			"material":5
		}]
	}],
	"asset":{
		"version":"2.0",
		"generator":"Maxon Cinema 4D 25.121 (#200000219)"
	},
	"scenes":[{
		"nodes":[0]
	}],
	"nodes":[{
		"name":"Car red",
		"children":[1,
		2,
		3,
		4,
		5,
		6,
		7,
		8,
		9]
	},
	{
		"name":"Car red",
		"mesh":0
	},
	{
		"name":"Car red-Orange",
		"mesh":1
	},
	{
		"name":"Car red-white",
		"mesh":2
	},
	{
		"name":"Car red-Black",
		"mesh":3
	},
	{
		"name":"Car red-Black",
		"mesh":4
	},
	{
		"name":"Car red-Grey",
		"mesh":5
	},
	{
		"name":"Car red-white",
		"mesh":6
	},
	{
		"name":"Car red-Glass Transparent",
		"mesh":7
	},
	{
		"name":"Car red-red_1",
		"mesh":8
	}],
	"accessors":[{
		"bufferView":0,
		"type":"SCALAR",
		"componentType":5123,
		"count":84,
		"byteOffset":0,
		"min":[0],
		"max":[83]
	},
	{
		"bufferView":1,
		"type":"VEC3",
		"componentType":5126,
		"count":84,
		"byteOffset":0,
		"min":[-0.3127613961696625,
		-0.03508330509066582,
		0.28304243087768557],
		"max":[-0.30207371711730959,
		0.39184144139289858,
		0.29293200373649599]
	},
	{
		"bufferView":1,
		"type":"VEC3",
		"componentType":5126,
		"count":84,
		"byteOffset":12,
		"min":[-1.0,
		-1.0,
		-1.0],
		"max":[1.0,
		1.0,
		1.0]
	},
	{
		"bufferView":1,
		"type":"VEC2",
		"componentType":5126,
		"count":84,
		"byteOffset":24,
		"min":[0.0,
		0.0],
		"max":[1.0,
		1.0]
	},
	{
		"bufferView":2,
		"type":"SCALAR",
		"componentType":5123,
		"count":72,
		"byteOffset":0,
		"min":[0],
		"max":[71]
	},
	{
		"bufferView":3,
		"type":"VEC3",
		"componentType":5126,
		"count":72,
		"byteOffset":0,
		"min":[-0.3501879870891571,
		-0.1244988963007927,
		-0.7343430519104004],
		"max":[0.36420702934265139,
		-0.1107393428683281,
		-0.6724974513053894]
	},
	{
		"bufferView":3,
		"type":"VEC3",
		"componentType":5126,
		"count":72,
		"byteOffset":12,
		"min":[-1.0,
		-1.0,
		-1.0],
		"max":[1.0,
		1.0,
		1.0]
	},
	{
		"bufferView":3,
		"type":"VEC2",
		"componentType":5126,
		"count":72,
		"byteOffset":24,
		"min":[0.0,
		0.0],
		"max":[1.0,
		1.0]
	},
	{
		"bufferView":4,
		"type":"SCALAR",
		"componentType":5123,
		"count":12,
		"byteOffset":0,
		"min":[0],
		"max":[11]
	},
	{
		"bufferView":5,
		"type":"VEC3",
		"componentType":5126,
		"count":12,
		"byteOffset":0,
		"min":[-0.3345900774002075,
		-0.12874816358089448,
		0.8675089478492737],
		"max":[0.34241044521331789,
		-0.05010628700256348,
		0.8675089478492737]
	},
	{
		"bufferView":5,
		"type":"VEC3",
		"componentType":5126,
		"count":12,
		"byteOffset":12,
		"min":[0.0,
		0.0,
		1.0],
		"max":[0.0,
		0.0,
		1.0]
	},
	{
		"bufferView":5,
		"type":"VEC2",
		"componentType":5126,
		"count":12,
		"byteOffset":24,
		"min":[0.16138923168182374,
		0.16138920187950135],
		"max":[0.8386107683181763,
		0.8386107683181763]
	},
	{
		"bufferView":6,
		"type":"SCALAR",
		"componentType":5123,
		"count":1734,
		"byteOffset":0,
		"min":[0],
		"max":[1733]
	},
	{
		"bufferView":7,
		"type":"VEC3",
		"componentType":5126,
		"count":1734,
		"byteOffset":0,
		"min":[0.24283069372177125,
		-0.3278701603412628,
		-0.9109662771224976],
		"max":[0.27410197257995608,
		-0.24549326300621034,
		-0.6960139870643616]
	},
	{
		"bufferView":7,
		"type":"VEC3",
		"componentType":5126,
		"count":1734,
		"byteOffset":12,
		"min":[-0.9999983310699463,
		-0.9876927137374878,
		-1.0],
		"max":[0.9999985694885254,
		0.99993497133255,
		1.0]
	},
	{
		"bufferView":7,
		"type":"VEC2",
		"componentType":5126,
		"count":1734,
		"byteOffset":24,
		"min":[0.0,
		0.0],
		"max":[1.0,
		1.0]
	},
	{
		"bufferView":8,
		"type":"SCALAR",
		"componentType":5123,
		"count":3126,
		"byteOffset":0,
		"min":[0],
		"max":[3125]
	},
	{
		"bufferView":9,
		"type":"VEC3",
		"componentType":5126,
		"count":3126,
		"byteOffset":0,
		"min":[-0.3628508448600769,
		-0.39049434661865237,
		-0.8922876119613648],
		"max":[0.3647257089614868,
		-0.09965529292821884,
		0.3711942434310913]
	},
	{
		"bufferView":9,
		"type":"VEC3",
		"componentType":5126,
		"count":3126,
		"byteOffset":12,
		"min":[-1.0,
		-1.0,
		-1.0],
		"max":[1.0,
		1.0,
		1.0]
	},
	{
		"bufferView":9,
		"type":"VEC2",
		"componentType":5126,
		"count":3126,
		"byteOffset":24,
		"min":[0.0,
		0.0],
		"max":[1.0,
		1.0]
	},
	{
		"bufferView":10,
		"type":"SCALAR",
		"componentType":5123,
		"count":28896,
		"byteOffset":0,
		"min":[0],
		"max":[28895]
	},
	{
		"bufferView":11,
		"type":"VEC3",
		"componentType":5126,
		"count":28896,
		"byteOffset":0,
		"min":[-0.39132267236709597,
		-0.2981698215007782,
		-0.921757698059082],
		"max":[0.4017919898033142,
		0.30621105432510378,
		0.921757698059082]
	},
	{
		"bufferView":11,
		"type":"VEC3",
		"componentType":5126,
		"count":28896,
		"byteOffset":12,
		"min":[-1.0,
		-1.0,
		-1.0],
		"max":[1.0,
		1.0,
		1.0]
	},
	{
		"bufferView":11,
		"type":"VEC2",
		"componentType":5126,
		"count":28896,
		"byteOffset":24,
		"min":[-0.21186807751655579,
		-0.04943501949310303],
		"max":[1.0,
		1.051786184310913]
	},
	{
		"bufferView":12,
		"type":"SCALAR",
		"componentType":5123,
		"count":7263,
		"byteOffset":0,
		"min":[0],
		"max":[7262]
	},
	{
		"bufferView":13,
		"type":"VEC3",
		"componentType":5126,
		"count":7263,
		"byteOffset":0,
		"min":[-0.36453109979629519,
		-0.3508100211620331,
		-0.9190086722373962],
		"max":[0.3664059638977051,
		0.24779634177684785,
		0.9190086722373962]
	},
	{
		"bufferView":13,
		"type":"VEC3",
		"componentType":5126,
		"count":7263,
		"byteOffset":12,
		"min":[-1.0,
		-1.0,
		-1.0],
		"max":[1.0,
		1.0,
		1.0]
	},
	{
		"bufferView":13,
		"type":"VEC2",
		"componentType":5126,
		"count":7263,
		"byteOffset":24,
		"min":[-0.21186807751655579,
		-0.04943501949310303],
		"max":[1.0,
		1.051786184310913]
	},
	{
		"bufferView":14,
		"type":"SCALAR",
		"componentType":5123,
		"count":48,
		"byteOffset":0,
		"min":[0],
		"max":[47]
	},
	{
		"bufferView":15,
		"type":"VEC3",
		"componentType":5126,
		"count":48,
		"byteOffset":0,
		"min":[-0.3180314004421234,
		-0.01971053145825863,
		-0.8118956685066223],
		"max":[0.3285069167613983,
		0.22935077548027039,
		0.2584247291088104]
	},
	{
		"bufferView":15,
		"type":"VEC3",
		"componentType":5126,
		"count":48,
		"byteOffset":12,
		"min":[-0.9847064018249512,
		0.17422208189964295,
		-0.9279802441596985],
		"max":[0.9847064018249512,
		0.3726296126842499,
		0.9279802441596985]
	},
	{
		"bufferView":15,
		"type":"VEC2",
		"componentType":5126,
		"count":48,
		"byteOffset":24,
		"min":[0.0,
		0.0],
		"max":[1.0,
		0.0]
	},
	{
		"bufferView":16,
		"type":"SCALAR",
		"componentType":5123,
		"count":4278,
		"byteOffset":0,
		"min":[0],
		"max":[4277]
	},
	{
		"bufferView":17,
		"type":"VEC3",
		"componentType":5126,
		"count":4278,
		"byteOffset":0,
		"min":[-0.3725394904613495,
		-0.27323871850967409,
		-0.8861752152442932],
		"max":[0.37311848998069765,
		0.24836768209934236,
		0.8712603449821472]
	},
	{
		"bufferView":17,
		"type":"VEC3",
		"componentType":5126,
		"count":4278,
		"byteOffset":12,
		"min":[-1.0,
		-1.0,
		-1.0],
		"max":[1.0,
		1.0,
		1.0]
	},
	{
		"bufferView":17,
		"type":"VEC2",
		"componentType":5126,
		"count":4278,
		"byteOffset":24,
		"min":[0.0,
		0.0],
		"max":[1.0,
		1.0]
	}],
	"bufferViews":[{
		"buffer":0,
		"byteOffset":0,
		"byteLength":168,
		"target":34963
	},
	{
		"buffer":0,
		"byteOffset":168,
		"byteLength":2688,
		"target":34962,
		"byteStride":32
	},
	{
		"buffer":1,
		"byteOffset":0,
		"byteLength":144,
		"target":34963
	},
	{
		"buffer":1,
		"byteOffset":144,
		"byteLength":2304,
		"target":34962,
		"byteStride":32
	},
	{
		"buffer":2,
		"byteOffset":0,
		"byteLength":24,
		"target":34963
	},
	{
		"buffer":2,
		"byteOffset":24,
		"byteLength":384,
		"target":34962,
		"byteStride":32
	},
	{
		"buffer":3,
		"byteOffset":0,
		"byteLength":3468,
		"target":34963
	},
	{
		"buffer":3,
		"byteOffset":3468,
		"byteLength":55488,
		"target":34962,
		"byteStride":32
	},
	{
		"buffer":4,
		"byteOffset":0,
		"byteLength":6252,
		"target":34963
	},
	{
		"buffer":4,
		"byteOffset":6252,
		"byteLength":100032,
		"target":34962,
		"byteStride":32
	},
	{
		"buffer":5,
		"byteOffset":0,
		"byteLength":57792,
		"target":34963
	},
	{
		"buffer":5,
		"byteOffset":57792,
		"byteLength":924672,
		"target":34962,
		"byteStride":32
	},
	{
		"buffer":6,
		"byteOffset":0,
		"byteLength":14526,
		"target":34963
	},
	{
		"buffer":6,
		"byteOffset":14528,
		"byteLength":232416,
		"target":34962,
		"byteStride":32
	},
	{
		"buffer":7,
		"byteOffset":0,
		"byteLength":96,
		"target":34963
	},
	{
		"buffer":7,
		"byteOffset":96,
		"byteLength":1536,
		"target":34962,
		"byteStride":32
	},
	{
		"buffer":8,
		"byteOffset":0,
		"byteLength":8556,
		"target":34963
	},
	{
		"buffer":8,
		"byteOffset":8556,
		"byteLength":136896,
		"target":34962,
		"byteStride":32
	}],
	"buffers":[{
		"uri":"data:application/octet-stream;base64,",
		"byteLength":2856
	},
	{
		"uri":"data:application/octet-stream;base64,",
		"byteLength":2448
	},
	{
		"uri":"data:application/octet-stream;base64,",
		"byteLength":408
	},
	{
		"uri":"data:application/octet-stream;base64,",
		"byteLength":58956
	},
	{
		"uri":"data:application/octet-stream;base64,",
		"byteLength":106284
	},
	{
		"uri":"data:application/octet-stream;base64,",
		"byteLength":982464
	},
	{
		"uri":"data:application/octet-stream;base64,",
		"byteLength":246944
	},
	{
		"uri":"data:application/octet-stream;base64,",
		"byteLength":1632
	},
	{
		"uri":"data:application/octet-stream;base64,",
		"byteLength":145452
	}],
	"materials":[{
		"pbrMetallicRoughness":{
			"baseColorFactor":[0.9693877551020408,
			0.5968544644791934,
			0.2243211334120425,
			1.0],
			"metallicFactor":0.0,
			"roughnessFactor":0.5
		},
		"emissiveFactor":[0.0,
		0.0,
		0.0],
		"alphaMode":"OPAQUE",
		"doubleSided":false,
		"name":"Orange"
	},
	{
		"pbrMetallicRoughness":{
			"baseColorFactor":[0.91,
			0.91,
			0.91,
			1.0],
			"metallicFactor":0.0,
			"roughnessFactor":0.5
		},
		"emissiveFactor":[0.0,
		0.0,
		0.0],
		"alphaMode":"OPAQUE",
		"doubleSided":false,
		"name":"white"
	},
	{
		"pbrMetallicRoughness":{
			"baseColorFactor":[0.173469387755102,
			0.16930612244897956,
			0.16930612244897956,
			1.0],
			"metallicFactor":1.0,
			"roughnessFactor":1.0
		},
		"emissiveFactor":[0.0,
		0.0,
		0.0],
		"alphaMode":"OPAQUE",
		"doubleSided":false,
		"name":"Black"
	},
	{
		"pbrMetallicRoughness":{
			"baseColorFactor":[0.41000000000000005,
			0.41000000000000005,
			0.41000000000000005,
			1.0],
			"metallicFactor":0.0,
			"roughnessFactor":0.5
		},
		"emissiveFactor":[0.0,
		0.0,
		0.0],
		"alphaMode":"OPAQUE",
		"doubleSided":false,
		"name":"Grey"
	},
	{
		"pbrMetallicRoughness":{
			"baseColorFactor":[1.0,
			1.0,
			1.0,
			0.0],
			"metallicFactor":1.0,
			"roughnessFactor":0.2
		},
		"emissiveFactor":[0.0,
		0.0,
		0.0],
		"alphaMode":"BLEND",
		"doubleSided":false,
		"name":"Glass Transparent"
	},
	{
		"pbrMetallicRoughness":{
			"baseColorFactor":[0.7490196078431373,
			0.0,
			0.0,
			1.0],
			"metallicFactor":1.0,
			"roughnessFactor":0.0
		},
		"emissiveFactor":[0.0,
		0.0,
		0.0],
		"alphaMode":"OPAQUE",
		"doubleSided":false,
		"name":"red_1"
	}]
}